# Blender v2.78 (sub 0) OBJ File: 'bird.blend'
# www.blender.org
mtllib mtns.mtl
o Plane.006_Plane.003
v 1068.301270 0.000000 -18.301275
v 981.698730 0.000000 -68.301270
v 1018.301270 0.000000 68.301270
v 931.698730 0.000000 18.301275
v 1025.444092 0.000000 55.929482
v 1032.587036 0.000000 43.557686
v 1039.729858 0.000000 31.185894
v 1046.872681 0.808467 18.814102
v 1054.015503 0.000000 6.442308
v 1061.158447 0.000000 -5.929483
v 1055.929443 0.000000 -25.444132
v 1043.557739 0.000000 -32.586990
v 1031.185913 0.000000 -39.729847
v 1018.814087 0.000000 -46.872704
v 1006.442322 0.000000 -54.015560
v 994.070496 0.000000 -61.158417
v 974.555847 0.000000 -55.929482
v 967.413025 0.000000 -43.557686
v 960.270142 0.000000 -31.185894
v 953.127319 0.000000 -18.814102
v 945.984436 0.000000 -6.442308
v 938.841553 0.000000 5.929483
v 944.070496 0.000000 25.444132
v 956.442322 0.000000 32.586990
v 968.814087 0.000000 39.729847
v 981.185913 0.000000 46.872704
v 993.557678 0.000000 54.015560
v 1005.929504 0.000000 61.158417
v 1048.786621 0.000000 -13.072340
v 1041.643799 9.727870 -0.700546
v 1034.500854 9.325662 11.671246
v 1027.358032 2.493070 24.043037
v 1020.215210 0.000000 36.414833
v 1013.072327 0.000000 48.786621
v 1036.414795 9.678620 -20.215197
v 1029.271973 11.059515 -7.843403
v 1022.129089 11.059515 4.528389
v 1014.986267 29.325661 16.900181
v 1007.843384 2.542318 29.271975
v 1000.700562 0.000000 41.643768
v 1024.043091 11.169123 -27.358053
v 1016.900208 29.325661 -14.986259
v 1009.757324 29.325661 -2.614467
v 1002.614441 29.325661 9.757324
v 995.471619 11.059513 22.129118
v 988.328735 0.759217 34.500912
v 1011.671265 11.169123 -34.500912
v 1004.528381 29.325661 -22.129116
v 997.385559 34.412899 -9.757324
v 990.242676 19.855150 2.614468
v 983.099792 9.325662 14.986261
v 975.956970 0.808467 27.358053
v 999.299438 11.169123 -41.643768
v 992.156616 29.325661 -29.271973
v 985.013733 29.325661 -16.900181
v 977.870911 11.059515 -4.528389
v 970.728027 9.325662 7.843404
v 963.585144 0.808467 20.215195
v 986.927673 0.000000 -48.786621
v 979.784790 14.074611 -36.414829
v 972.641968 14.074611 -24.043037
v 965.499084 0.759217 -11.671246
v 958.356201 13.149222 0.700548
v 951.213379 0.000000 13.072340
vn 0.0000 1.0000 0.0000
vn -0.0265 0.9986 0.0460
vn -0.0283 0.9984 0.0489
vn -0.0771 0.9968 0.0206
vn 0.5103 0.8257 0.2407
vn 0.1208 0.9836 0.1340
vn 0.6687 0.7212 -0.1810
vn 0.0903 0.9923 0.0844
vn -0.1202 0.8968 0.4259
vn 0.0649 0.9703 0.2330
vn 0.2804 0.8279 -0.4857
vn 0.1373 0.9900 -0.0312
vn 0.6822 0.6161 0.3939
vn 0.8453 0.4839 -0.2265
vn -0.1908 0.4531 0.8708
vn -0.0422 0.9832 0.1777
vn 0.3080 0.7878 -0.5334
vn 0.3929 0.6184 -0.6806
vn 0.2905 0.9421 0.1677
vn -0.6920 0.5703 0.4425
vn -0.3759 0.8072 0.4551
vn -0.1164 0.8931 -0.4345
vn -0.5558 0.6796 0.4787
vn -0.6504 0.7213 0.2383
vn -0.2560 0.8589 0.4435
vn -0.1920 0.6708 -0.7164
vn -0.1492 0.5160 -0.8435
vn -0.6321 0.6836 -0.3649
vn -0.8049 0.5147 0.2952
vn 0.1642 0.9594 0.2292
vn -0.2978 0.8579 0.4187
vn -0.2103 0.5831 -0.7847
vn -0.6078 0.7124 -0.3509
vn -0.7829 0.5935 0.1867
vn -0.2254 0.6202 -0.7513
vn -0.7660 0.6092 0.2052
vn 0.0194 0.9972 0.0724
vn -0.0253 0.9984 0.0507
vn 0.6700 0.7203 -0.1795
vn 0.4313 0.8587 0.2769
vn 0.2202 0.7945 0.5659
vn 0.0620 0.9709 0.2314
vn 0.6683 0.7221 -0.1791
vn 0.1279 0.9911 -0.0368
vn 0.0804 0.9957 0.0464
vn 0.9128 0.4028 -0.0677
vn 0.2430 0.3526 0.9037
vn 0.0632 0.9698 0.2357
vn 0.3779 0.7851 -0.4907
vn 0.8454 0.4851 -0.2238
vn -0.3939 0.6161 0.6822
vn 0.1138 0.7302 0.6737
vn 0.3930 0.6184 -0.6806
vn 0.4345 0.8931 -0.1164
vn -0.6884 0.6353 0.3501
vn -0.3795 0.8012 0.4628
vn -0.2535 0.8589 0.4450
vn -0.6754 0.5760 0.4605
vn -0.0602 0.9927 0.1043
vn -0.1148 0.6223 -0.7743
vn -0.6320 0.6836 -0.3649
vn -0.7056 0.6470 0.2890
vn -0.1266 0.6634 -0.7375
vn -0.1649 0.7219 0.6721
vn -0.6078 0.7123 -0.3509
vn -0.0460 0.9986 -0.0265
usemtl None
s off
f 22//1 23//1 64//1
f 34//1 3//1 5//1
f 40//1 28//1 34//1
f 40//1 26//1 27//1
f 46//2 25//2 26//2
f 52//3 24//3 25//3
f 64//4 24//4 58//4
f 11//1 10//1 1//1
f 29//1 9//1 10//1
f 30//5 8//5 9//5
f 8//6 32//6 7//6
f 7//1 33//1 6//1
f 33//1 5//1 6//1
f 12//1 29//1 11//1
f 35//7 30//7 29//7
f 30//8 37//8 31//8
f 37//9 32//9 31//9
f 32//10 39//10 33//10
f 33//1 40//1 34//1
f 13//11 35//11 12//11
f 41//12 36//12 35//12
f 42//13 37//13 36//13
f 43//14 38//14 37//14
f 38//15 45//15 39//15
f 39//16 46//16 40//16
f 14//17 41//17 13//17
f 47//18 42//18 41//18
f 48//1 43//1 42//1
f 49//19 44//19 43//19
f 50//20 45//20 44//20
f 51//21 46//21 45//21
f 15//17 47//17 14//17
f 53//18 48//18 47//18
f 48//22 55//22 49//22
f 55//23 50//23 49//23
f 56//24 51//24 50//24
f 57//25 52//25 51//25
f 15//26 59//26 53//26
f 53//27 60//27 54//27
f 60//28 55//28 54//28
f 61//29 56//29 55//29
f 56//30 63//30 57//30
f 57//31 64//31 58//31
f 2//1 59//1 16//1
f 59//32 18//32 60//32
f 18//33 61//33 60//33
f 19//34 62//34 61//34
f 62//35 21//35 63//35
f 21//36 64//36 63//36
f 22//1 4//1 23//1
f 34//1 28//1 3//1
f 40//1 27//1 28//1
f 40//37 46//37 26//37
f 46//38 52//38 25//38
f 52//3 58//3 24//3
f 64//1 23//1 24//1
f 11//1 29//1 10//1
f 29//39 30//39 9//39
f 30//40 31//40 8//40
f 8//41 31//41 32//41
f 7//42 32//42 33//42
f 33//1 34//1 5//1
f 12//43 35//43 29//43
f 35//44 36//44 30//44
f 30//45 36//45 37//45
f 37//46 38//46 32//46
f 32//47 38//47 39//47
f 33//48 39//48 40//48
f 13//49 41//49 35//49
f 41//50 42//50 36//50
f 42//13 43//13 37//13
f 43//1 44//1 38//1
f 38//51 44//51 45//51
f 39//52 45//52 46//52
f 14//17 47//17 41//17
f 47//53 48//53 42//53
f 48//54 49//54 43//54
f 49//55 50//55 44//55
f 50//56 51//56 45//56
f 51//57 52//57 46//57
f 15//17 53//17 47//17
f 53//53 54//53 48//53
f 48//1 54//1 55//1
f 55//58 56//58 50//58
f 56//59 57//59 51//59
f 57//25 58//25 52//25
f 15//1 16//1 59//1
f 53//60 59//60 60//60
f 60//61 61//61 55//61
f 61//62 62//62 56//62
f 56//63 62//63 63//63
f 57//64 63//64 64//64
f 2//1 17//1 59//1
f 59//1 17//1 18//1
f 18//65 19//65 61//65
f 19//66 20//66 62//66
f 62//66 20//66 21//66
f 21//1 22//1 64//1
